<?xml version="1.0" encoding="UTF-8"?>
<svg width="1123px" height="259px" viewBox="0 0 1123 259" version="1.1" xmlns="http://www.w3.org/2000/svg" xmlns:xlink="http://www.w3.org/1999/xlink" xmlns:sketch="http://www.bohemiancoding.com/sketch/ns">
    <!-- Generator: Sketch 3.3.2 (12043) - http://www.bohemiancoding.com/sketch -->
    <title>logo all black</title>
    <desc>Created with Sketch.</desc>
    <defs></defs>
    <g id="Page-1" stroke="none" stroke-width="1" fill="none" fill-rule="evenodd" sketch:type="MSPage">
        <g id="Logos-Artboard" sketch:type="MSArtboardGroup" transform="translate(-57.000000, -167.000000)" fill="#000000">
            <g id="logo-all-black" sketch:type="MSLayerGroup" transform="translate(68.000000, 167.000000)">
                <g id="plane-+-swirl" transform="translate(692.000000, 0.000000)" sketch:type="MSShapeGroup">
                    <path d="M418.655977,26.4363706 C418.722174,26.2840157 418.808289,26.1366271 418.861206,25.9809613 C419.029899,25.502371 419.100648,24.9923246 419.164758,24.4806228 C419.182858,24.3514552 419.232505,24.237189 419.243965,24.1063659 C419.287954,23.420788 419.229045,22.7236264 419.057294,22.0264733 C419.030601,21.907245 418.982337,21.7896743 418.949006,21.6687907 C418.939029,21.6522317 418.943984,21.6323596 418.942299,21.610832 C418.938962,21.5959285 418.920695,21.584338 418.919009,21.5628104 C418.890698,21.4783578 418.870679,21.3889365 418.840716,21.3111079 C418.579345,20.6056817 418.205234,19.9847193 417.753197,19.4217217 C417.650165,19.2975315 417.517303,19.2081188 417.40598,19.0888972 C416.995567,18.6418149 416.543732,18.2477272 416.030587,17.9298189 C415.804737,17.7890783 415.568977,17.6880819 415.328229,17.5788059 C414.868303,17.3585962 414.395164,17.1913788 413.887243,17.0788115 C413.620003,17.019217 413.364391,16.9695574 413.088892,16.9430827 C412.909654,16.9265368 412.750267,16.8586539 412.567725,16.8553561 L7.34678028,0.224051752 C4.4625441,0.110010969 1.81112241,1.8059349 0.729028139,4.47710878 C-0.353066135,7.14828266 0.357495827,10.2101294 2.5087529,12.1325534 L98.4513708,97.7789306 L91.0856604,209.831175 C91.0525625,209.907351 91.0510113,209.99843 91.0245529,210.076263 C90.8260309,210.589632 90.6905697,211.104651 90.6264942,211.644504 C90.5936305,211.917743 90.5640691,212.177733 90.5660557,212.452625 C90.5618716,213.119984 90.6605522,213.770776 90.853807,214.409968 C90.8937795,214.532507 90.8623998,214.658364 90.909012,214.782559 C90.9206734,214.820645 90.9472649,214.855418 90.9672175,214.888537 C91.0221546,215.035914 91.1168962,215.165074 91.1851118,215.315762 C91.4013889,215.777763 91.6392024,216.209954 91.9367055,216.600742 C91.9849021,216.66201 92.0065734,216.744807 92.0614098,216.80773 C92.1428387,216.905427 92.2507586,216.953441 92.3338391,217.044513 C92.6727995,217.410458 93.0366004,217.733346 93.4385202,218.016487 C93.6012773,218.127425 93.7474511,218.2483 93.9201511,218.347645 C94.4747848,218.668862 95.06255,218.942053 95.686683,219.097667 L95.7066022,219.102633 C95.7331612,219.109255 95.763023,219.10263 95.789582,219.109252 C95.9008061,219.144018 96.012029,219.178785 96.1249045,219.206928 C97.9641049,219.665492 99.8288266,219.257978 101.372622,218.29905 L187.13242,187.714846 L251.700366,256.863481 C252.614213,257.837125 253.784924,258.515986 255.053109,258.83218 C255.750279,259.006004 256.488805,259.07053 257.228849,259.015826 C259.299636,258.856694 261.193416,257.766914 262.362931,256.046265 L418.033385,27.5757306 C418.175854,27.3720345 418.306695,27.1584033 418.425908,26.9348373 C418.477241,26.8420986 418.508654,26.7443936 418.551695,26.6566235 C418.589781,26.5887255 418.622879,26.5125481 418.655977,26.4363706 L418.655977,26.4363706 L418.655977,26.4363706 Z M330.844165,49.7839536 L142.709111,127.032062 C142.402765,127.15978 142.137867,127.347098 141.856394,127.516207 C141.750425,127.574241 141.647759,127.619022 141.55339,127.686986 C141.376235,127.804687 141.212333,127.925694 141.045127,128.059953 C140.8862,128.189237 140.752127,128.331755 140.6048,128.47097 C140.260494,128.807399 139.952644,129.166992 139.684571,129.564655 C139.629962,129.642532 139.560428,129.695574 139.512445,129.775104 C139.499211,129.799955 139.4694,129.806599 139.456166,129.83145 L106.468768,184.504406 L112.004345,100.789433 L330.844165,49.7839536 L330.844165,49.7839536 Z M113.506742,199.37478 L146.362886,144.699305 L170.018447,169.861097 L176.785493,177.057241 L144.89924,188.301082 L113.506742,199.37478 L113.506742,199.37478 Z M361.027578,28.6450704 L106.829755,87.9094567 L25.350304,15.0300323 L361.027578,28.6450704 L361.027578,28.6450704 Z M255.593555,240.86026 L170.009204,149.100753 L157.049159,135.199398 L393.537159,38.2123286 L255.593555,240.86026 L255.593555,240.86026 Z" id="Shape"></path>
                </g>
                <text id="VolaDeAcá" sketch:type="MSTextLayer" font-family="Angelina" font-size="200" font-weight="normal">
                    <tspan x="9.09494702e-13" y="158.272">VolaDeAcá</tspan>
                </text>
            </g>
        </g>
    </g>
</svg>