<?xml version="1.0" encoding="iso-8859-1"?>
<svg xmlns="http://www.w3.org/2000/svg" xmlns:xlink="http://www.w3.org/1999/xlink" version="1.1" viewBox="0 0 463 463" enable-background="new 0 0 463 463" width="512px" height="512px">
  <path d="m454.075,435.879l-215.867-431.733c-0.008-0.017-0.018-0.031-0.027-0.048-0.016-0.032-0.032-0.064-0.049-0.095-0.05-0.095-0.105-0.186-0.16-0.279-0.041-0.07-0.079-0.142-0.122-0.21-0.023-0.037-0.048-0.072-0.072-0.108-0.055-0.083-0.112-0.165-0.17-0.246-0.046-0.064-0.088-0.131-0.135-0.193-0.033-0.044-0.07-0.085-0.104-0.128-0.057-0.072-0.116-0.143-0.176-0.213-0.047-0.054-0.09-0.112-0.138-0.165-0.047-0.052-0.099-0.1-0.148-0.151-0.061-0.063-0.121-0.126-0.184-0.187-0.042-0.041-0.082-0.085-0.125-0.125-0.064-0.06-0.134-0.114-0.2-0.171-0.065-0.056-0.129-0.113-0.196-0.167-0.033-0.027-0.064-0.056-0.098-0.082-0.082-0.064-0.169-0.121-0.254-0.181-0.071-0.051-0.14-0.103-0.213-0.151-0.022-0.014-0.042-0.03-0.064-0.044-0.096-0.062-0.197-0.117-0.296-0.174-0.08-0.047-0.157-0.097-0.238-0.14-0.011-0.006-0.022-0.012-0.033-0.017-0.09-0.048-0.185-0.089-0.278-0.133-0.043-0.021-0.086-0.042-0.13-0.062-0.074-0.034-0.146-0.07-0.221-0.102-0.067-0.028-0.139-0.05-0.207-0.076-0.005-0.002-0.011-0.004-0.017-0.006-0.119-0.045-0.238-0.092-0.359-0.131-0.098-0.031-0.198-0.056-0.297-0.083-0.124-0.034-0.247-0.069-0.372-0.097-0.025-0.005-0.05-0.013-0.075-0.018-0.072-0.015-0.146-0.024-0.219-0.037-0.119-0.021-0.237-0.043-0.357-0.059-0.049-0.006-0.099-0.013-0.148-0.018-0.062-0.007-0.124-0.01-0.186-0.015-0.106-0.009-0.213-0.019-0.32-0.023-0.078-0.003-0.156-0.004-0.233-0.005-0.03,0-0.058-0.004-0.088-0.004-0.028,0-0.054,0.004-0.082,0.004-0.084,0.001-0.167,0.002-0.251,0.005-0.101,0.004-0.201,0.014-0.302,0.022-0.062,0.005-0.124,0.008-0.186,0.015-0.055,0.006-0.109,0.013-0.164,0.02-0.115,0.015-0.228,0.036-0.341,0.057-0.073,0.013-0.148,0.022-0.221,0.037-0.028,0.006-0.056,0.014-0.085,0.021-0.122,0.027-0.242,0.061-0.362,0.094-0.101,0.028-0.202,0.053-0.301,0.085-0.123,0.04-0.243,0.087-0.364,0.133-0.003,0.001-0.006,0.002-0.009,0.003-0.07,0.026-0.142,0.049-0.21,0.077-0.059,0.025-0.116,0.053-0.174,0.079-0.063,0.028-0.124,0.059-0.186,0.089-0.089,0.043-0.18,0.082-0.267,0.128-0.012,0.006-0.024,0.012-0.036,0.019-0.079,0.043-0.155,0.092-0.233,0.137-0.004,0.002-0.008,0.005-0.012,0.007-0.095,0.056-0.193,0.108-0.285,0.168-0.023,0.015-0.045,0.032-0.068,0.047-0.072,0.048-0.14,0.1-0.21,0.15-0.084,0.06-0.171,0.116-0.252,0.18-0.035,0.027-0.067,0.057-0.102,0.085-0.065,0.053-0.128,0.108-0.191,0.163-0.007,0.006-0.014,0.012-0.021,0.018-0.059,0.052-0.122,0.1-0.179,0.153-0.044,0.041-0.085,0.086-0.129,0.128-0.062,0.06-0.121,0.122-0.181,0.184-0.004,0.004-0.008,0.008-0.012,0.012-0.045,0.047-0.093,0.091-0.136,0.139-0.049,0.054-0.093,0.112-0.141,0.167-0.06,0.07-0.118,0.14-0.175,0.212-0.034,0.043-0.071,0.083-0.104,0.127-0.048,0.063-0.091,0.13-0.137,0.195-0.057,0.081-0.115,0.161-0.169,0.244-0.023,0.036-0.048,0.071-0.071,0.107-0.043,0.069-0.082,0.141-0.123,0.212-0.054,0.092-0.109,0.183-0.159,0.278-0.017,0.032-0.033,0.063-0.049,0.095-0.008,0.017-0.019,0.031-0.027,0.048l-215.866,431.733c-2.791,5.581-2.049,12.03 1.936,16.832 3.984,4.799 10.182,6.719 16.186,5.004l146.636-41.896 52.937,45.375c0.017,0.015 0.036,0.027 0.053,0.042 0.071,0.06 0.145,0.115 0.218,0.172 0.07,0.054 0.138,0.11 0.209,0.162 0.046,0.033 0.092,0.066 0.138,0.098 0.085,0.059 0.174,0.113 0.262,0.169 0.026,0.017 0.052,0.034 0.078,0.051 0.048,0.03 0.095,0.064 0.143,0.093 0.039,0.022 0.078,0.041 0.117,0.063 0.086,0.048 0.173,0.092 0.261,0.137 0.095,0.049 0.189,0.099 0.285,0.143 0.035,0.016 0.071,0.03 0.106,0.045 0.081,0.036 0.164,0.068 0.246,0.1 0.116,0.046 0.232,0.09 0.349,0.13 0.039,0.013 0.077,0.028 0.116,0.04 0.066,0.021 0.134,0.04 0.201,0.059 0.136,0.04 0.273,0.074 0.41,0.105 0.001,0 0.001,0 0.001,0 0.044,0.01 0.087,0.024 0.13,0.034 0.047,0.01 0.095,0.017 0.143,0.026 0.154,0.029 0.308,0.051 0.463,0.071 0.043,0.006 0.085,0.015 0.128,0.02 0.012,0.001 0.024,0.004 0.036,0.005 0.023,0.002 0.047,0.003 0.07,0.005 0.237,0.022 0.474,0.036 0.711,0.036 0,0 0.001,0 0.002,0 0,0 0.001,0 0.002,0 0,0 0.001,0 0.002,0h0.002c0.237,0 0.473-0.014 0.71-0.036 0.024-0.002 0.048-0.003 0.071-0.005 0.012-0.001 0.024-0.004 0.036-0.005 0.045-0.005 0.089-0.015 0.134-0.021 0.152-0.02 0.303-0.041 0.454-0.069 0.049-0.009 0.098-0.017 0.146-0.027 0.044-0.009 0.087-0.023 0.131-0.034 0.003-0.001 0.006-0.001 0.009-0.002 0.132-0.031 0.264-0.064 0.395-0.102 0.07-0.02 0.14-0.039 0.208-0.061 0.041-0.013 0.081-0.029 0.122-0.043 0.111-0.038 0.221-0.08 0.331-0.123 0.086-0.034 0.173-0.068 0.258-0.105 0.037-0.016 0.074-0.031 0.111-0.048 0.09-0.041 0.178-0.089 0.266-0.134 0.094-0.048 0.189-0.095 0.281-0.147 0.035-0.02 0.072-0.037 0.107-0.057 0.059-0.034 0.114-0.075 0.172-0.111 0.014-0.009 0.028-0.018 0.042-0.027 0.093-0.059 0.187-0.116 0.277-0.179 0.044-0.031 0.088-0.062 0.132-0.094 0.072-0.052 0.142-0.109 0.213-0.164 0.073-0.057 0.147-0.112 0.217-0.172 0.017-0.015 0.036-0.027 0.053-0.042l52.938-45.375 146.635,41.896c6.001,1.713 12.202-0.204 16.187-5.006 3.985-4.798 4.726-11.247 1.936-16.828zm-285.325-34.25l-145.824,41.663c-0.153,0.046-0.313,0.09-0.521-0.161s-0.134-0.399-0.063-0.543l195.378-390.759-48.97,349.8zm55.25-286.462v324.026l-40.503-34.718 40.503-289.308zm15,324.026v-324.027l40.504,289.31-40.504,34.717zm201.596,3.938c-0.209,0.252-0.37,0.206-0.522,0.161l-145.823-41.663-48.972-349.8 195.38,390.759c0.071,0.143 0.145,0.292-0.063,0.543z" fill="#dc0055"/>
</svg>
